# xmcd
#
# Track frame offsets: 
#        182
#        24112
#        50320
#        62520
#        74662
#        105172
#        138860
#        182830
#        206135
#
# Disc length: 3424 seconds
#
# Revision: 3
# Processed by: cddbd v1.5.2PL0 Copyright (c) Steve Scherf et al.
# Submitted via: ExactAudioCopy v0.95b4
#
DISCID=750d5e09
DTITLE=Sir Georg Solti Vienna Philharmonic Orchestra - Shostakovich Sy
DTITLE=mphony No.9, Beethoven Symphony No.5
DYEAR=1990
DGENRE=Classical
TTITLE0=Shostakovich, Symphony No 9 -I. Allegro
TTITLE1=Shostakovich, Symphony No 9 -I.I Moderato
TTITLE2=Shostakovich, Symphony No 9 -III. Presto
TTITLE3=Shostakovich, Symphony No 9 -IV. Largo
TTITLE4=Shostakovich, Symphony No 9 -V. Allegretto-Allegro
TTITLE5=Beethoven, Symphony No 5 -I. Allegro con brio
TTITLE6=Beethoven, Symphony No 5 -II. Andante con moto
TTITLE7=Beethoven, Symphony No 5 -III. Allegro
TTITLE8=Beethoven, Symphony No 5 -IV. Allegro
EXTD=
EXTT0=
EXTT1=
EXTT2=
EXTT3=
EXTT4=
EXTT5=
EXTT6=
EXTT7=
EXTT8=
PLAYORDER=
